<svg width="15" height="14" viewBox="0 0 15 14" fill="none" xmlns="http://www.w3.org/2000/svg">
<path fill-rule="evenodd" clip-rule="evenodd" d="M4.45962 2.00001C4.45962 2.99412 3.65373 3.80001 2.65962 3.80001C1.66551 3.80001 0.859619 2.99412 0.859619 2.00001C0.859619 1.0059 1.66551 0.200012 2.65962 0.200012C3.65373 0.200012 4.45962 1.0059 4.45962 2.00001ZM7.95962 1.00001C7.35211 1.00001 6.85962 1.4925 6.85962 2.10001C6.85962 2.70752 7.35211 3.20001 7.95962 3.20001H13.7596C14.3671 3.20001 14.8596 2.70752 14.8596 2.10001C14.8596 1.4925 14.3671 1.00001 13.7596 1.00001H7.95962ZM7.95962 11C7.35211 11 6.85962 11.4925 6.85962 12.1C6.85962 12.7075 7.35211 13.2 7.95962 13.2H13.7596C14.3671 13.2 14.8596 12.7075 14.8596 12.1C14.8596 11.4925 14.3671 11 13.7596 11H7.95962ZM0.859619 7.10001C0.859619 6.4925 1.35211 6.00001 1.95962 6.00001H7.75962C8.36713 6.00001 8.85962 6.4925 8.85962 7.10001C8.85962 7.70752 8.36713 8.20001 7.75962 8.20001H1.95962C1.35211 8.20001 0.859619 7.70752 0.859619 7.10001ZM2.65962 13.8C3.65373 13.8 4.45962 12.9941 4.45962 12C4.45962 11.0059 3.65373 10.2 2.65962 10.2C1.66551 10.2 0.859619 11.0059 0.859619 12C0.859619 12.9941 1.66551 13.8 2.65962 13.8ZM14.4596 7.00001C14.4596 7.99412 13.6537 8.80001 12.6596 8.80001C11.6655 8.80001 10.8596 7.99412 10.8596 7.00001C10.8596 6.0059 11.6655 5.20001 12.6596 5.20001C13.6537 5.20001 14.4596 6.0059 14.4596 7.00001Z" fill="white"/>
</svg>
