<svg width="134" height="40" viewBox="0 0 134 40" fill="none" xmlns="http://www.w3.org/2000/svg">
<path d="M0 20C0 8.95431 8.9543 0 20 0H114C125.046 0 134 8.95431 134 20C134 31.0457 125.046 40 114 40H20C8.9543 40 0 31.0457 0 20Z" fill="#808080"/>
<path fill-rule="evenodd" clip-rule="evenodd" d="M19.6 15C19.6 15.9941 18.7941 16.8 17.8 16.8C16.8059 16.8 16 15.9941 16 15C16 14.0058 16.8059 13.2 17.8 13.2C18.7941 13.2 19.6 14.0058 19.6 15ZM23.1 14C22.4925 14 22 14.4924 22 15.1C22 15.7075 22.4925 16.2 23.1 16.2H28.9C29.5075 16.2 30 15.7075 30 15.1C30 14.4924 29.5075 14 28.9 14H23.1ZM23.1 24C22.4925 24 22 24.4924 22 25.1C22 25.7075 22.4925 26.2 23.1 26.2H28.9C29.5075 26.2 30 25.7075 30 25.1C30 24.4924 29.5075 24 28.9 24H23.1ZM16 20.1C16 19.4924 16.4925 19 17.1 19H22.9C23.5075 19 24 19.4924 24 20.1C24 20.7075 23.5075 21.2 22.9 21.2H17.1C16.4925 21.2 16 20.7075 16 20.1ZM17.8 26.8C18.7941 26.8 19.6 25.9941 19.6 25C19.6 24.0058 18.7941 23.2 17.8 23.2C16.8059 23.2 16 24.0058 16 25C16 25.9941 16.8059 26.8 17.8 26.8ZM29.6 20C29.6 20.9941 28.7941 21.8 27.8 21.8C26.8059 21.8 26 20.9941 26 20C26 19.0058 26.8059 18.2 27.8 18.2C28.7941 18.2 29.6 19.0058 29.6 20Z" fill="white"/>
<path d="M39.304 16.74H36.056V15.2H44.372V16.74H41.124V25H39.304V16.74ZM51.8323 21.304C51.8323 21.4253 51.8229 21.598 51.8043 21.822H45.9383C46.0409 22.3727 46.3069 22.8113 46.7363 23.138C47.1749 23.4553 47.7163 23.614 48.3603 23.614C49.1816 23.614 49.8583 23.3433 50.3903 22.802L51.3283 23.88C50.9923 24.2813 50.5676 24.5847 50.0543 24.79C49.5409 24.9953 48.9623 25.098 48.3183 25.098C47.4969 25.098 46.7736 24.9347 46.1483 24.608C45.5229 24.2813 45.0376 23.8287 44.6923 23.25C44.3563 22.662 44.1883 21.9993 44.1883 21.262C44.1883 20.534 44.3516 19.8807 44.6783 19.302C45.0143 18.714 45.4763 18.2567 46.0643 17.93C46.6523 17.6033 47.3149 17.44 48.0523 17.44C48.7803 17.44 49.4289 17.6033 49.9983 17.93C50.5769 18.2473 51.0249 18.7 51.3423 19.288C51.6689 19.8667 51.8323 20.5387 51.8323 21.304ZM48.0523 18.84C47.4923 18.84 47.0163 19.008 46.6243 19.344C46.2416 19.6707 46.0083 20.1093 45.9243 20.66H50.1663C50.0916 20.1187 49.8629 19.68 49.4803 19.344C49.0976 19.008 48.6216 18.84 48.0523 18.84ZM55.8232 25.098C55.2166 25.098 54.6239 25.0187 54.0452 24.86C53.4666 24.7013 53.0046 24.5007 52.6592 24.258L53.3312 22.928C53.6672 23.152 54.0686 23.334 54.5352 23.474C55.0112 23.6047 55.4779 23.67 55.9352 23.67C56.9806 23.67 57.5032 23.3947 57.5032 22.844C57.5032 22.5827 57.3679 22.4007 57.0972 22.298C56.8359 22.1953 56.4112 22.0973 55.8232 22.004C55.2072 21.9107 54.7032 21.8033 54.3112 21.682C53.9286 21.5607 53.5926 21.3507 53.3032 21.052C53.0232 20.744 52.8832 20.3193 52.8832 19.778C52.8832 19.0687 53.1772 18.504 53.7652 18.084C54.3626 17.6547 55.1652 17.44 56.1732 17.44C56.6866 17.44 57.1999 17.5007 57.7132 17.622C58.2266 17.734 58.6466 17.888 58.9732 18.084L58.3012 19.414C57.6666 19.0407 56.9526 18.854 56.1592 18.854C55.6459 18.854 55.2539 18.9333 54.9832 19.092C54.7219 19.2413 54.5912 19.442 54.5912 19.694C54.5912 19.974 54.7312 20.1747 55.0112 20.296C55.3006 20.408 55.7439 20.5153 56.3412 20.618C56.9386 20.7113 57.4286 20.8187 57.8112 20.94C58.1939 21.0613 58.5206 21.2667 58.7912 21.556C59.0712 21.8453 59.2112 22.256 59.2112 22.788C59.2112 23.488 58.9079 24.048 58.3012 24.468C57.6946 24.888 56.8686 25.098 55.8232 25.098ZM65.2123 24.594C65.007 24.762 64.755 24.888 64.4563 24.972C64.167 25.056 63.859 25.098 63.5323 25.098C62.711 25.098 62.0763 24.8833 61.6283 24.454C61.1803 24.0247 60.9563 23.3993 60.9563 22.578V18.98H59.7243V17.58H60.9563V15.872H62.7063V17.58H64.7083V18.98H62.7063V22.536C62.7063 22.9 62.795 23.18 62.9723 23.376C63.1496 23.5627 63.4063 23.656 63.7423 23.656C64.1343 23.656 64.461 23.5533 64.7223 23.348L65.2123 24.594ZM66.6519 17.524H68.4019V25H66.6519V17.524ZM67.5339 16.292C67.2166 16.292 66.9506 16.194 66.7359 15.998C66.5212 15.7927 66.4139 15.5407 66.4139 15.242C66.4139 14.9433 66.5212 14.696 66.7359 14.5C66.9506 14.2947 67.2166 14.192 67.5339 14.192C67.8512 14.192 68.1172 14.29 68.3319 14.486C68.5466 14.6727 68.6539 14.9107 68.6539 15.2C68.6539 15.508 68.5466 15.7693 68.3319 15.984C68.1266 16.1893 67.8606 16.292 67.5339 16.292ZM74.9408 17.44C75.8834 17.44 76.6394 17.7153 77.2088 18.266C77.7781 18.8167 78.0628 19.6333 78.0628 20.716V25H76.3128V20.94C76.3128 20.2867 76.1588 19.7967 75.8508 19.47C75.5428 19.134 75.1041 18.966 74.5348 18.966C73.8908 18.966 73.3821 19.162 73.0088 19.554C72.6354 19.9367 72.4488 20.492 72.4488 21.22V25H70.6988V17.524H72.3648V18.49C72.6541 18.1447 73.0181 17.8833 73.4568 17.706C73.8954 17.5287 74.3901 17.44 74.9408 17.44ZM87.7711 17.524V23.866C87.7711 26.498 86.4271 27.814 83.7391 27.814C83.0205 27.814 82.3391 27.7207 81.6951 27.534C81.0511 27.3567 80.5191 27.0953 80.0991 26.75L80.8831 25.434C81.2098 25.7047 81.6205 25.9193 82.1151 26.078C82.6191 26.246 83.1278 26.33 83.6411 26.33C84.4625 26.33 85.0645 26.1433 85.4471 25.77C85.8298 25.3967 86.0211 24.8273 86.0211 24.062V23.67C85.7225 23.9967 85.3585 24.244 84.9291 24.412C84.4998 24.58 84.0285 24.664 83.5151 24.664C82.8058 24.664 82.1618 24.5147 81.5831 24.216C81.0138 23.908 80.5611 23.4787 80.2251 22.928C79.8985 22.3773 79.7351 21.7473 79.7351 21.038C79.7351 20.3287 79.8985 19.7033 80.2251 19.162C80.5611 18.6113 81.0138 18.1867 81.5831 17.888C82.1618 17.5893 82.8058 17.44 83.5151 17.44C84.0565 17.44 84.5465 17.5287 84.9851 17.706C85.4331 17.8833 85.8065 18.154 86.1051 18.518V17.524H87.7711ZM83.7811 23.18C84.4438 23.18 84.9851 22.984 85.4051 22.592C85.8345 22.1907 86.0491 21.6727 86.0491 21.038C86.0491 20.4127 85.8345 19.904 85.4051 19.512C84.9851 19.12 84.4438 18.924 83.7811 18.924C83.1091 18.924 82.5585 19.12 82.1291 19.512C81.7091 19.904 81.4991 20.4127 81.4991 21.038C81.4991 21.6727 81.7091 22.1907 82.1291 22.592C82.5585 22.984 83.1091 23.18 83.7811 23.18ZM100.465 22.732H95.565L94.599 25H92.723L97.133 15.2H98.925L103.349 25H101.445L100.465 22.732ZM99.863 21.304L98.015 17.02L96.181 21.304H99.863ZM108.627 15.2C109.477 15.2 110.214 15.34 110.839 15.62C111.474 15.9 111.959 16.3013 112.295 16.824C112.631 17.3467 112.799 17.9673 112.799 18.686C112.799 19.3953 112.631 20.016 112.295 20.548C111.959 21.0707 111.474 21.472 110.839 21.752C110.214 22.032 109.477 22.172 108.627 22.172H106.415V25H104.595V15.2H108.627ZM108.543 20.632C109.337 20.632 109.939 20.464 110.349 20.128C110.76 19.792 110.965 19.3113 110.965 18.686C110.965 18.0607 110.76 17.58 110.349 17.244C109.939 16.908 109.337 16.74 108.543 16.74H106.415V20.632H108.543ZM114.617 15.2H116.437V25H114.617V15.2Z" fill="white"/>
<path d="M20 1H114V-1H20V1ZM114 39H20V41H114V39ZM20 39C9.50659 39 1 30.4934 1 20H-1C-1 31.598 8.40202 41 20 41V39ZM133 20C133 30.4934 124.493 39 114 39V41C125.598 41 135 31.598 135 20H133ZM114 1C124.493 1 133 9.50659 133 20H135C135 8.40202 125.598 -1 114 -1V1ZM20 -1C8.40202 -1 -1 8.40202 -1 20H1C1 9.50659 9.50659 1 20 1V-1Z" fill="#808080"/>
</svg>
