<svg width="208" height="68" viewBox="0 0 208 68" fill="none" xmlns="http://www.w3.org/2000/svg">
<g filter="url(#filter0_d)">
<rect x="8" y="4" width="192" height="52" rx="10" fill="#854CFF"/>
<path d="M37.2071 36L34.7911 32.56C34.4924 32.5813 34.2577 32.592 34.0871 32.592H31.3191V36H29.7191V24.8H34.0871C35.5377 24.8 36.6791 25.1467 37.5111 25.84C38.3431 26.5333 38.7591 27.488 38.7591 28.704C38.7591 29.568 38.5457 30.304 38.1191 30.912C37.6924 31.52 37.0844 31.9627 36.2951 32.24L38.9511 36H37.2071ZM34.0391 31.232C35.0524 31.232 35.8257 31.0133 36.3591 30.576C36.8924 30.1387 37.1591 29.5147 37.1591 28.704C37.1591 27.8933 36.8924 27.2747 36.3591 26.848C35.8257 26.4107 35.0524 26.192 34.0391 26.192H31.3191V31.232H34.0391ZM49.0241 27.52V36H47.5681V34.72C47.2587 35.1573 46.8481 35.4987 46.3361 35.744C45.8347 35.9787 45.2854 36.096 44.6881 36.096C43.5574 36.096 42.6667 35.7867 42.0161 35.168C41.3654 34.5387 41.0401 33.616 41.0401 32.4V27.52H42.5761V32.224C42.5761 33.0453 42.7734 33.6693 43.1681 34.096C43.5627 34.512 44.1281 34.72 44.8641 34.72C45.6747 34.72 46.3147 34.4747 46.7841 33.984C47.2534 33.4933 47.4881 32.8 47.4881 31.904V27.52H49.0241ZM56.4762 27.44C57.5535 27.44 58.4069 27.7547 59.0362 28.384C59.6762 29.0027 59.9962 29.9147 59.9962 31.12V36H58.4602V31.296C58.4602 30.4747 58.2629 29.856 57.8682 29.44C57.4735 29.024 56.9082 28.816 56.1722 28.816C55.3402 28.816 54.6842 29.0613 54.2042 29.552C53.7242 30.032 53.4842 30.7253 53.4842 31.632V36H51.9482V27.52H53.4202V28.8C53.7295 28.3627 54.1455 28.0267 54.6682 27.792C55.2015 27.5573 55.8042 27.44 56.4762 27.44ZM70.2237 27.44C71.397 27.44 72.293 27.728 72.9117 28.304C73.541 28.88 73.8557 29.7387 73.8557 30.88V36H72.3997V34.88C72.1437 35.2747 71.7757 35.5787 71.2957 35.792C70.8264 35.9947 70.2664 36.096 69.6157 36.096C68.6664 36.096 67.9037 35.8667 67.3277 35.408C66.7624 34.9493 66.4797 34.3467 66.4797 33.6C66.4797 32.8533 66.7517 32.256 67.2957 31.808C67.8397 31.3493 68.7037 31.12 69.8877 31.12H72.3197V30.816C72.3197 30.1547 72.1277 29.648 71.7437 29.296C71.3597 28.944 70.7944 28.768 70.0477 28.768C69.5464 28.768 69.0557 28.8533 68.5757 29.024C68.0957 29.184 67.6904 29.4027 67.3597 29.68L66.7197 28.528C67.157 28.176 67.6797 27.9093 68.2877 27.728C68.8957 27.536 69.541 27.44 70.2237 27.44ZM69.8717 34.912C70.4584 34.912 70.965 34.784 71.3917 34.528C71.8184 34.2613 72.1277 33.888 72.3197 33.408V32.224H69.9517C68.6504 32.224 67.9997 32.6613 67.9997 33.536C67.9997 33.9627 68.165 34.2987 68.4957 34.544C68.8264 34.7893 69.285 34.912 69.8717 34.912ZM84.6022 27.52V36H83.1462V34.72C82.8369 35.1573 82.4262 35.4987 81.9142 35.744C81.4129 35.9787 80.8635 36.096 80.2662 36.096C79.1355 36.096 78.2449 35.7867 77.5942 35.168C76.9435 34.5387 76.6182 33.616 76.6182 32.4V27.52H78.1542V32.224C78.1542 33.0453 78.3515 33.6693 78.7462 34.096C79.1409 34.512 79.7062 34.72 80.4422 34.72C81.2529 34.72 81.8929 34.4747 82.3622 33.984C82.8315 33.4933 83.0662 32.8 83.0662 31.904V27.52H84.6022ZM92.2943 35.504C92.0703 35.696 91.793 35.8453 91.4623 35.952C91.1316 36.048 90.7903 36.096 90.4383 36.096C89.585 36.096 88.9236 35.8667 88.4543 35.408C87.985 34.9493 87.7503 34.2933 87.7503 33.44V28.784H86.3103V27.52H87.7503V25.664H89.2863V27.52H91.7183V28.784H89.2863V33.376C89.2863 33.8347 89.3983 34.1867 89.6223 34.432C89.857 34.6773 90.1876 34.8 90.6143 34.8C91.0836 34.8 91.4836 34.6667 91.8143 34.4L92.2943 35.504ZM97.5021 36.096C96.6594 36.096 95.9021 35.9093 95.2301 35.536C94.5581 35.1627 94.0301 34.6507 93.6461 34C93.2727 33.3387 93.0861 32.592 93.0861 31.76C93.0861 30.928 93.2727 30.1867 93.6461 29.536C94.0301 28.8747 94.5581 28.3627 95.2301 28C95.9021 27.6267 96.6594 27.44 97.5021 27.44C98.3447 27.44 99.0967 27.6267 99.7581 28C100.43 28.3627 100.953 28.8747 101.326 29.536C101.71 30.1867 101.902 30.928 101.902 31.76C101.902 32.592 101.71 33.3387 101.326 34C100.953 34.6507 100.43 35.1627 99.7581 35.536C99.0967 35.9093 98.3447 36.096 97.5021 36.096ZM97.5021 34.752C98.0461 34.752 98.5314 34.6293 98.9581 34.384C99.3954 34.128 99.7367 33.776 99.9821 33.328C100.227 32.8693 100.35 32.3467 100.35 31.76C100.35 31.1733 100.227 30.656 99.9821 30.208C99.7367 29.7493 99.3954 29.3973 98.9581 29.152C98.5314 28.9067 98.0461 28.784 97.5021 28.784C96.9581 28.784 96.4674 28.9067 96.0301 29.152C95.6034 29.3973 95.2621 29.7493 95.0061 30.208C94.7607 30.656 94.6381 31.1733 94.6381 31.76C94.6381 32.3467 94.7607 32.8693 95.0061 33.328C95.2621 33.776 95.6034 34.128 96.0301 34.384C96.4674 34.6293 96.9581 34.752 97.5021 34.752ZM107.722 36.096C106.858 36.096 106.085 35.9093 105.402 35.536C104.73 35.1627 104.202 34.6507 103.818 34C103.434 33.3387 103.242 32.592 103.242 31.76C103.242 30.928 103.434 30.1867 103.818 29.536C104.202 28.8747 104.73 28.3627 105.402 28C106.085 27.6267 106.858 27.44 107.722 27.44C108.49 27.44 109.173 27.5947 109.77 27.904C110.378 28.2133 110.848 28.6613 111.178 29.248L110.01 30C109.744 29.5947 109.413 29.2907 109.018 29.088C108.624 28.8853 108.186 28.784 107.706 28.784C107.152 28.784 106.65 28.9067 106.202 29.152C105.765 29.3973 105.418 29.7493 105.162 30.208C104.917 30.656 104.794 31.1733 104.794 31.76C104.794 32.3573 104.917 32.8853 105.162 33.344C105.418 33.792 105.765 34.1387 106.202 34.384C106.65 34.6293 107.152 34.752 107.706 34.752C108.186 34.752 108.624 34.6507 109.018 34.448C109.413 34.2453 109.744 33.9413 110.01 33.536L111.178 34.272C110.848 34.8587 110.378 35.312 109.77 35.632C109.173 35.9413 108.49 36.096 107.722 36.096ZM116.674 36.096C115.831 36.096 115.074 35.9093 114.402 35.536C113.73 35.1627 113.202 34.6507 112.818 34C112.445 33.3387 112.258 32.592 112.258 31.76C112.258 30.928 112.445 30.1867 112.818 29.536C113.202 28.8747 113.73 28.3627 114.402 28C115.074 27.6267 115.831 27.44 116.674 27.44C117.517 27.44 118.269 27.6267 118.93 28C119.602 28.3627 120.125 28.8747 120.498 29.536C120.882 30.1867 121.074 30.928 121.074 31.76C121.074 32.592 120.882 33.3387 120.498 34C120.125 34.6507 119.602 35.1627 118.93 35.536C118.269 35.9093 117.517 36.096 116.674 36.096ZM116.674 34.752C117.218 34.752 117.703 34.6293 118.13 34.384C118.567 34.128 118.909 33.776 119.154 33.328C119.399 32.8693 119.522 32.3467 119.522 31.76C119.522 31.1733 119.399 30.656 119.154 30.208C118.909 29.7493 118.567 29.3973 118.13 29.152C117.703 28.9067 117.218 28.784 116.674 28.784C116.13 28.784 115.639 28.9067 115.202 29.152C114.775 29.3973 114.434 29.7493 114.178 30.208C113.933 30.656 113.81 31.1733 113.81 31.76C113.81 32.3467 113.933 32.8693 114.178 33.328C114.434 33.776 114.775 34.128 115.202 34.384C115.639 34.6293 116.13 34.752 116.674 34.752ZM133.806 27.44C134.873 27.44 135.716 27.7493 136.334 28.368C136.964 28.9867 137.278 29.904 137.278 31.12V36H135.742V31.296C135.742 30.4747 135.55 29.856 135.166 29.44C134.793 29.024 134.254 28.816 133.55 28.816C132.772 28.816 132.153 29.0613 131.694 29.552C131.236 30.032 131.006 30.7253 131.006 31.632V36H129.47V31.296C129.47 30.4747 129.278 29.856 128.894 29.44C128.521 29.024 127.982 28.816 127.278 28.816C126.5 28.816 125.881 29.0613 125.422 29.552C124.964 30.032 124.734 30.7253 124.734 31.632V36H123.198V27.52H124.67V28.784C124.98 28.3467 125.385 28.016 125.886 27.792C126.388 27.5573 126.958 27.44 127.598 27.44C128.26 27.44 128.846 27.5733 129.358 27.84C129.87 28.1067 130.265 28.496 130.542 29.008C130.862 28.5173 131.305 28.1333 131.87 27.856C132.446 27.5787 133.092 27.44 133.806 27.44ZM144.6 27.44C145.422 27.44 146.158 27.6213 146.808 27.984C147.459 28.3467 147.966 28.8533 148.328 29.504C148.702 30.1547 148.888 30.9067 148.888 31.76C148.888 32.6133 148.702 33.3707 148.328 34.032C147.966 34.6827 147.459 35.1893 146.808 35.552C146.158 35.9147 145.422 36.096 144.6 36.096C143.992 36.096 143.432 35.9787 142.92 35.744C142.419 35.5093 141.992 35.168 141.64 34.72V39.104H140.104V27.52H141.576V28.864C141.918 28.3947 142.35 28.0427 142.872 27.808C143.395 27.5627 143.971 27.44 144.6 27.44ZM144.472 34.752C145.016 34.752 145.502 34.6293 145.928 34.384C146.366 34.128 146.707 33.776 146.952 33.328C147.208 32.8693 147.336 32.3467 147.336 31.76C147.336 31.1733 147.208 30.656 146.952 30.208C146.707 29.7493 146.366 29.3973 145.928 29.152C145.502 28.9067 145.016 28.784 144.472 28.784C143.939 28.784 143.454 28.912 143.016 29.168C142.59 29.4133 142.248 29.76 141.992 30.208C141.747 30.656 141.624 31.1733 141.624 31.76C141.624 32.3467 141.747 32.8693 141.992 33.328C142.238 33.776 142.579 34.128 143.016 34.384C143.454 34.6293 143.939 34.752 144.472 34.752ZM151.011 24.128H152.547V36H151.011V24.128ZM163.143 31.808C163.143 31.9253 163.133 32.08 163.111 32.272H156.231C156.327 33.0187 156.653 33.6213 157.207 34.08C157.773 34.528 158.471 34.752 159.303 34.752C160.317 34.752 161.133 34.4107 161.751 33.728L162.599 34.72C162.215 35.168 161.735 35.5093 161.159 35.744C160.594 35.9787 159.959 36.096 159.255 36.096C158.359 36.096 157.565 35.9147 156.871 35.552C156.178 35.1787 155.639 34.6613 155.255 34C154.882 33.3387 154.695 32.592 154.695 31.76C154.695 30.9387 154.877 30.1973 155.239 29.536C155.613 28.8747 156.119 28.3627 156.759 28C157.41 27.6267 158.141 27.44 158.951 27.44C159.762 27.44 160.482 27.6267 161.111 28C161.751 28.3627 162.247 28.8747 162.599 29.536C162.962 30.1973 163.143 30.9547 163.143 31.808ZM158.951 28.736C158.215 28.736 157.597 28.96 157.095 29.408C156.605 29.856 156.317 30.4427 156.231 31.168H161.671C161.586 30.4533 161.293 29.872 160.791 29.424C160.301 28.9653 159.687 28.736 158.951 28.736ZM170.044 35.504C169.82 35.696 169.543 35.8453 169.212 35.952C168.882 36.048 168.54 36.096 168.188 36.096C167.335 36.096 166.674 35.8667 166.204 35.408C165.735 34.9493 165.5 34.2933 165.5 33.44V28.784H164.06V27.52H165.5V25.664H167.036V27.52H169.468V28.784H167.036V33.376C167.036 33.8347 167.148 34.1867 167.372 34.432C167.607 34.6773 167.938 34.8 168.364 34.8C168.834 34.8 169.234 34.6667 169.564 34.4L170.044 35.504ZM179.284 31.808C179.284 31.9253 179.273 32.08 179.252 32.272H172.372C172.468 33.0187 172.793 33.6213 173.348 34.08C173.913 34.528 174.612 34.752 175.444 34.752C176.457 34.752 177.273 34.4107 177.892 33.728L178.74 34.72C178.356 35.168 177.876 35.5093 177.3 35.744C176.735 35.9787 176.1 36.096 175.396 36.096C174.5 36.096 173.705 35.9147 173.012 35.552C172.319 35.1787 171.78 34.6613 171.396 34C171.023 33.3387 170.836 32.592 170.836 31.76C170.836 30.9387 171.017 30.1973 171.38 29.536C171.753 28.8747 172.26 28.3627 172.9 28C173.551 27.6267 174.281 27.44 175.092 27.44C175.903 27.44 176.623 27.6267 177.252 28C177.892 28.3627 178.388 28.8747 178.74 29.536C179.103 30.1973 179.284 30.9547 179.284 31.808ZM175.092 28.736C174.356 28.736 173.737 28.96 173.236 29.408C172.745 29.856 172.457 30.4427 172.372 31.168H177.812C177.727 30.4533 177.433 29.872 176.932 29.424C176.441 28.9653 175.828 28.736 175.092 28.736Z" fill="white"/>
</g>
<defs>
<filter id="filter0_d" x="0" y="0" width="208" height="68" filterUnits="userSpaceOnUse" color-interpolation-filters="sRGB">
<feFlood flood-opacity="0" result="BackgroundImageFix"/>
<feColorMatrix in="SourceAlpha" type="matrix" values="0 0 0 0 0 0 0 0 0 0 0 0 0 0 0 0 0 0 127 0"/>
<feOffset dy="4"/>
<feGaussianBlur stdDeviation="4"/>
<feColorMatrix type="matrix" values="0 0 0 0 0 0 0 0 0 0 0 0 0 0 0 0 0 0 0.25 0"/>
<feBlend mode="normal" in2="BackgroundImageFix" result="effect1_dropShadow"/>
<feBlend mode="normal" in="SourceGraphic" in2="effect1_dropShadow" result="shape"/>
</filter>
</defs>
</svg>
