<svg width="157" height="20" viewBox="0 0 157 20" fill="none" xmlns="http://www.w3.org/2000/svg">
<path fill-rule="evenodd" clip-rule="evenodd" d="M8.5 0.500729C13.1948 0.500729 17 4.40212 17 9.21565C17 13.0653 14.5666 16.3307 11.192 17.4847C10.7607 17.5699 10.6077 17.2982 10.6077 17.0658C10.6077 16.7787 10.6179 15.8404 10.6179 14.6747C10.6179 13.8616 10.3461 13.3312 10.0409 13.0609C11.9337 12.8453 13.9226 12.108 13.9226 8.76103C13.9226 7.80882 13.5933 7.03219 13.0476 6.42239C13.1358 6.20164 13.4272 5.31499 12.9638 4.11507C12.9638 4.11507 12.252 3.88193 10.6296 5.00827C9.94982 4.81521 9.22272 4.71831 8.5 4.71539C7.77728 4.71831 7.05018 4.81521 6.37263 5.00827C4.74796 3.8812 4.03398 4.11507 4.03398 4.11507C3.57281 5.31499 3.86423 6.20164 3.95166 6.42166C3.40889 7.03219 3.07667 7.80882 3.07667 8.76103C3.07667 12.1 5.06124 12.8482 6.94892 13.0682C6.70558 13.2853 6.48556 13.67 6.40906 14.2332C5.92457 14.4561 4.69405 14.8408 3.93563 13.509C3.93563 13.509 3.48611 12.6712 2.63298 12.6107C2.63298 12.6107 1.80389 12.5998 2.5747 13.1404C2.5747 13.1404 3.13131 13.4077 3.51817 14.4153C3.51817 14.4153 4.01723 15.9708 6.38137 15.4433C6.38575 16.1719 6.39376 16.8589 6.39376 17.0658C6.39376 17.2967 6.23712 17.5656 5.81311 17.4854C2.43554 16.3336 0 13.066 0 9.21638C0 4.40139 3.80668 0.5 8.5 0.5" fill="#8E8E94"/>
<path d="M27.516 14.12C26.668 14.12 25.9 13.936 25.212 13.568C24.532 13.192 23.996 12.676 23.604 12.02C23.22 11.364 23.028 10.624 23.028 9.8C23.028 8.976 23.224 8.236 23.616 7.58C24.008 6.924 24.544 6.412 25.224 6.044C25.912 5.668 26.68 5.48 27.528 5.48C28.216 5.48 28.844 5.6 29.412 5.84C29.98 6.08 30.46 6.428 30.852 6.884L29.844 7.832C29.236 7.176 28.488 6.848 27.6 6.848C27.024 6.848 26.508 6.976 26.052 7.232C25.596 7.48 25.24 7.828 24.984 8.276C24.728 8.724 24.6 9.232 24.6 9.8C24.6 10.368 24.728 10.876 24.984 11.324C25.24 11.772 25.596 12.124 26.052 12.38C26.508 12.628 27.024 12.752 27.6 12.752C28.488 12.752 29.236 12.42 29.844 11.756L30.852 12.716C30.46 13.172 29.976 13.52 29.4 13.76C28.832 14 28.204 14.12 27.516 14.12ZM34.8484 14.084C34.2004 14.084 33.6164 13.944 33.0964 13.664C32.5764 13.384 32.1684 12.996 31.8724 12.5C31.5844 11.996 31.4404 11.428 31.4404 10.796C31.4404 10.164 31.5844 9.6 31.8724 9.104C32.1684 8.608 32.5764 8.22 33.0964 7.94C33.6164 7.66 34.2004 7.52 34.8484 7.52C35.5044 7.52 36.0924 7.66 36.6124 7.94C37.1324 8.22 37.5364 8.608 37.8244 9.104C38.1204 9.6 38.2684 10.164 38.2684 10.796C38.2684 11.428 38.1204 11.996 37.8244 12.5C37.5364 12.996 37.1324 13.384 36.6124 13.664C36.0924 13.944 35.5044 14.084 34.8484 14.084ZM34.8484 12.8C35.4004 12.8 35.8564 12.616 36.2164 12.248C36.5764 11.88 36.7564 11.396 36.7564 10.796C36.7564 10.196 36.5764 9.712 36.2164 9.344C35.8564 8.976 35.4004 8.792 34.8484 8.792C34.2964 8.792 33.8404 8.976 33.4804 9.344C33.1284 9.712 32.9524 10.196 32.9524 10.796C32.9524 11.396 33.1284 11.88 33.4804 12.248C33.8404 12.616 34.2964 12.8 34.8484 12.8ZM43.3388 7.52C44.1468 7.52 44.7948 7.756 45.2828 8.228C45.7708 8.7 46.0148 9.4 46.0148 10.328V14H44.5148V10.52C44.5148 9.96 44.3828 9.54 44.1188 9.26C43.8548 8.972 43.4788 8.828 42.9908 8.828C42.4388 8.828 42.0028 8.996 41.6828 9.332C41.3628 9.66 41.2028 10.136 41.2028 10.76V14H39.7028V7.592H41.1308V8.42C41.3788 8.124 41.6908 7.9 42.0668 7.748C42.4428 7.596 42.8668 7.52 43.3388 7.52ZM51.7696 13.652C51.5936 13.796 51.3776 13.904 51.1216 13.976C50.8736 14.048 50.6096 14.084 50.3296 14.084C49.6256 14.084 49.0816 13.9 48.6976 13.532C48.3136 13.164 48.1216 12.628 48.1216 11.924V8.84H47.0656V7.64H48.1216V6.176H49.6216V7.64H51.3376V8.84H49.6216V11.888C49.6216 12.2 49.6976 12.44 49.8496 12.608C50.0016 12.768 50.2216 12.848 50.5096 12.848C50.8456 12.848 51.1256 12.76 51.3496 12.584L51.7696 13.652ZM54.4315 8.528C54.8635 7.856 55.6235 7.52 56.7115 7.52V8.948C56.5835 8.924 56.4675 8.912 56.3635 8.912C55.7795 8.912 55.3235 9.084 54.9955 9.428C54.6675 9.764 54.5035 10.252 54.5035 10.892V14H53.0035V7.592H54.4315V8.528ZM57.984 7.592H59.484V14H57.984V7.592ZM58.74 6.536C58.468 6.536 58.24 6.452 58.056 6.284C57.872 6.108 57.78 5.892 57.78 5.636C57.78 5.38 57.872 5.168 58.056 5C58.24 4.824 58.468 4.736 58.74 4.736C59.012 4.736 59.24 4.82 59.424 4.988C59.608 5.148 59.7 5.352 59.7 5.6C59.7 5.864 59.608 6.088 59.424 6.272C59.248 6.448 59.02 6.536 58.74 6.536ZM65.0048 7.52C65.6288 7.52 66.1848 7.656 66.6728 7.928C67.1688 8.2 67.5568 8.584 67.8368 9.08C68.1168 9.576 68.2568 10.148 68.2568 10.796C68.2568 11.444 68.1168 12.02 67.8368 12.524C67.5568 13.02 67.1688 13.404 66.6728 13.676C66.1848 13.948 65.6288 14.084 65.0048 14.084C64.5648 14.084 64.1608 14.008 63.7928 13.856C63.4328 13.704 63.1288 13.476 62.8808 13.172V14H61.4528V5.096H62.9528V8.372C63.2088 8.092 63.5088 7.88 63.8528 7.736C64.2048 7.592 64.5888 7.52 65.0048 7.52ZM64.8368 12.8C65.3888 12.8 65.8408 12.616 66.1928 12.248C66.5528 11.88 66.7328 11.396 66.7328 10.796C66.7328 10.196 66.5528 9.712 66.1928 9.344C65.8408 8.976 65.3888 8.792 64.8368 8.792C64.4768 8.792 64.1528 8.876 63.8648 9.044C63.5768 9.204 63.3488 9.436 63.1808 9.74C63.0128 10.044 62.9288 10.396 62.9288 10.796C62.9288 11.196 63.0128 11.548 63.1808 11.852C63.3488 12.156 63.5768 12.392 63.8648 12.56C64.1528 12.72 64.4768 12.8 64.8368 12.8ZM75.8833 7.592V14H74.4553V13.184C74.2153 13.472 73.9153 13.696 73.5553 13.856C73.1953 14.008 72.8073 14.084 72.3913 14.084C71.5353 14.084 70.8593 13.848 70.3633 13.376C69.8753 12.896 69.6313 12.188 69.6313 11.252V7.592H71.1313V11.048C71.1313 11.624 71.2593 12.056 71.5153 12.344C71.7793 12.624 72.1513 12.764 72.6313 12.764C73.1673 12.764 73.5913 12.6 73.9033 12.272C74.2233 11.936 74.3833 11.456 74.3833 10.832V7.592H75.8833ZM81.6993 13.652C81.5233 13.796 81.3073 13.904 81.0513 13.976C80.8033 14.048 80.5393 14.084 80.2593 14.084C79.5553 14.084 79.0113 13.9 78.6273 13.532C78.2433 13.164 78.0513 12.628 78.0513 11.924V8.84H76.9953V7.64H78.0513V6.176H79.5513V7.64H81.2673V8.84H79.5513V11.888C79.5513 12.2 79.6273 12.44 79.7793 12.608C79.9313 12.768 80.1513 12.848 80.4393 12.848C80.7753 12.848 81.0553 12.76 81.2793 12.584L81.6993 13.652ZM88.7463 10.832C88.7463 10.936 88.7383 11.084 88.7223 11.276H83.6943C83.7823 11.748 84.0103 12.124 84.3783 12.404C84.7543 12.676 85.2183 12.812 85.7703 12.812C86.4743 12.812 87.0543 12.58 87.5103 12.116L88.3143 13.04C88.0263 13.384 87.6623 13.644 87.2223 13.82C86.7823 13.996 86.2863 14.084 85.7343 14.084C85.0303 14.084 84.4103 13.944 83.8743 13.664C83.3383 13.384 82.9223 12.996 82.6263 12.5C82.3383 11.996 82.1943 11.428 82.1943 10.796C82.1943 10.172 82.3343 9.612 82.6143 9.116C82.9023 8.612 83.2983 8.22 83.8023 7.94C84.3063 7.66 84.8743 7.52 85.5063 7.52C86.1303 7.52 86.6863 7.66 87.1743 7.94C87.6703 8.212 88.0543 8.6 88.3263 9.104C88.6063 9.6 88.7463 10.176 88.7463 10.832ZM85.5063 8.72C85.0263 8.72 84.6183 8.864 84.2823 9.152C83.9543 9.432 83.7543 9.808 83.6823 10.28H87.3183C87.2543 9.816 87.0583 9.44 86.7303 9.152C86.4023 8.864 85.9943 8.72 85.5063 8.72ZM96.3835 14.084C95.7355 14.084 95.1515 13.944 94.6315 13.664C94.1115 13.384 93.7035 12.996 93.4075 12.5C93.1195 11.996 92.9755 11.428 92.9755 10.796C92.9755 10.164 93.1195 9.6 93.4075 9.104C93.7035 8.608 94.1115 8.22 94.6315 7.94C95.1515 7.66 95.7355 7.52 96.3835 7.52C97.0395 7.52 97.6275 7.66 98.1475 7.94C98.6675 8.22 99.0715 8.608 99.3595 9.104C99.6555 9.6 99.8035 10.164 99.8035 10.796C99.8035 11.428 99.6555 11.996 99.3595 12.5C99.0715 12.996 98.6675 13.384 98.1475 13.664C97.6275 13.944 97.0395 14.084 96.3835 14.084ZM96.3835 12.8C96.9355 12.8 97.3915 12.616 97.7515 12.248C98.1115 11.88 98.2915 11.396 98.2915 10.796C98.2915 10.196 98.1115 9.712 97.7515 9.344C97.3915 8.976 96.9355 8.792 96.3835 8.792C95.8315 8.792 95.3755 8.976 95.0155 9.344C94.6635 9.712 94.4875 10.196 94.4875 10.796C94.4875 11.396 94.6635 11.88 95.0155 12.248C95.3755 12.616 95.8315 12.8 96.3835 12.8ZM104.874 7.52C105.682 7.52 106.33 7.756 106.818 8.228C107.306 8.7 107.55 9.4 107.55 10.328V14H106.05V10.52C106.05 9.96 105.918 9.54 105.654 9.26C105.39 8.972 105.014 8.828 104.526 8.828C103.974 8.828 103.538 8.996 103.218 9.332C102.898 9.66 102.738 10.136 102.738 10.76V14H101.238V7.592H102.666V8.42C102.914 8.124 103.226 7.9 103.602 7.748C103.978 7.596 104.402 7.52 104.874 7.52ZM118.649 9.704H120.125V13.052C119.693 13.396 119.189 13.66 118.613 13.844C118.037 14.028 117.445 14.12 116.837 14.12C115.981 14.12 115.209 13.936 114.521 13.568C113.833 13.192 113.293 12.676 112.901 12.02C112.509 11.364 112.313 10.624 112.313 9.8C112.313 8.976 112.509 8.236 112.901 7.58C113.293 6.924 113.833 6.412 114.521 6.044C115.217 5.668 115.997 5.48 116.861 5.48C117.565 5.48 118.205 5.596 118.781 5.828C119.357 6.06 119.841 6.4 120.233 6.848L119.249 7.808C118.609 7.168 117.837 6.848 116.933 6.848C116.341 6.848 115.813 6.972 115.349 7.22C114.893 7.468 114.533 7.816 114.269 8.264C114.013 8.712 113.885 9.224 113.885 9.8C113.885 10.36 114.013 10.864 114.269 11.312C114.533 11.76 114.893 12.112 115.349 12.368C115.813 12.624 116.337 12.752 116.921 12.752C117.577 12.752 118.153 12.608 118.649 12.32V9.704ZM122.039 7.592H123.539V14H122.039V7.592ZM122.795 6.536C122.523 6.536 122.295 6.452 122.111 6.284C121.927 6.108 121.835 5.892 121.835 5.636C121.835 5.38 121.927 5.168 122.111 5C122.295 4.824 122.523 4.736 122.795 4.736C123.067 4.736 123.295 4.82 123.479 4.988C123.663 5.148 123.755 5.352 123.755 5.6C123.755 5.864 123.663 6.088 123.479 6.272C123.303 6.448 123.075 6.536 122.795 6.536ZM129.359 13.652C129.183 13.796 128.967 13.904 128.711 13.976C128.463 14.048 128.199 14.084 127.919 14.084C127.215 14.084 126.671 13.9 126.287 13.532C125.903 13.164 125.711 12.628 125.711 11.924V8.84H124.655V7.64H125.711V6.176H127.211V7.64H128.927V8.84H127.211V11.888C127.211 12.2 127.287 12.44 127.439 12.608C127.591 12.768 127.811 12.848 128.099 12.848C128.435 12.848 128.715 12.76 128.939 12.584L129.359 13.652ZM138.201 5.6V14H136.641V10.4H132.297V14H130.737V5.6H132.297V9.068H136.641V5.6H138.201ZM146.512 7.592V14H145.084V13.184C144.844 13.472 144.544 13.696 144.184 13.856C143.824 14.008 143.436 14.084 143.02 14.084C142.164 14.084 141.488 13.848 140.992 13.376C140.504 12.896 140.26 12.188 140.26 11.252V7.592H141.76V11.048C141.76 11.624 141.888 12.056 142.144 12.344C142.408 12.624 142.78 12.764 143.26 12.764C143.796 12.764 144.22 12.6 144.532 12.272C144.852 11.936 145.012 11.456 145.012 10.832V7.592H146.512ZM152.028 7.52C152.652 7.52 153.208 7.656 153.696 7.928C154.192 8.2 154.58 8.584 154.86 9.08C155.14 9.576 155.28 10.148 155.28 10.796C155.28 11.444 155.14 12.02 154.86 12.524C154.58 13.02 154.192 13.404 153.696 13.676C153.208 13.948 152.652 14.084 152.028 14.084C151.588 14.084 151.184 14.008 150.816 13.856C150.456 13.704 150.152 13.476 149.904 13.172V14H148.476V5.096H149.976V8.372C150.232 8.092 150.532 7.88 150.876 7.736C151.228 7.592 151.612 7.52 152.028 7.52ZM151.86 12.8C152.412 12.8 152.864 12.616 153.216 12.248C153.576 11.88 153.756 11.396 153.756 10.796C153.756 10.196 153.576 9.712 153.216 9.344C152.864 8.976 152.412 8.792 151.86 8.792C151.5 8.792 151.176 8.876 150.888 9.044C150.6 9.204 150.372 9.436 150.204 9.74C150.036 10.044 149.952 10.396 149.952 10.796C149.952 11.196 150.036 11.548 150.204 11.852C150.372 12.156 150.6 12.392 150.888 12.56C151.176 12.72 151.5 12.8 151.86 12.8Z" fill="#8E8E94"/>
</svg>
