<svg width="107" height="40" viewBox="0 0 107 40" fill="none" xmlns="http://www.w3.org/2000/svg">
<path fill-rule="evenodd" clip-rule="evenodd" d="M24.5 11.5004C29.1948 11.5004 33 15.4018 33 20.2153C33 24.0649 30.5666 27.3303 27.192 28.4843C26.7607 28.5696 26.6077 28.2978 26.6077 28.0654C26.6077 27.7784 26.6179 26.84 26.6179 25.6743C26.6179 24.8613 26.3461 24.3309 26.0409 24.0606C27.9337 23.8449 29.9226 23.1076 29.9226 19.7607C29.9226 18.8085 29.5933 18.0318 29.0476 17.422C29.1358 17.2013 29.4272 16.3146 28.9638 15.1147C28.9638 15.1147 28.252 14.8816 26.6296 16.0079C25.9498 15.8148 25.2227 15.7179 24.5 15.715C23.7773 15.7179 23.0502 15.8148 22.3726 16.0079C20.748 14.8808 20.034 15.1147 20.034 15.1147C19.5728 16.3146 19.8642 17.2013 19.9517 17.4213C19.4089 18.0318 19.0767 18.8085 19.0767 19.7607C19.0767 23.0996 21.0612 23.8478 22.9489 24.0679C22.7056 24.285 22.4856 24.6696 22.4091 25.2328C21.9246 25.4557 20.6941 25.8404 19.9356 24.5086C19.9356 24.5086 19.4861 23.6708 18.633 23.6103C18.633 23.6103 17.8039 23.5994 18.5747 24.14C18.5747 24.14 19.1313 24.4074 19.5182 25.415C19.5182 25.415 20.0172 26.9704 22.3814 26.4429C22.3857 27.1715 22.3938 27.8585 22.3938 28.0654C22.3938 28.2964 22.2371 28.5652 21.8131 28.4851C18.4355 27.3332 16 24.0657 16 20.216C16 15.401 19.8067 11.4996 24.5 11.4996" fill="white"/>
<path d="M47.008 19.988H48.73V23.894C48.226 24.2953 47.638 24.6033 46.966 24.818C46.294 25.0327 45.6033 25.14 44.894 25.14C43.8953 25.14 42.9947 24.9253 42.192 24.496C41.3893 24.0573 40.7593 23.4553 40.302 22.69C39.8447 21.9247 39.616 21.0613 39.616 20.1C39.616 19.1387 39.8447 18.2753 40.302 17.51C40.7593 16.7447 41.3893 16.1473 42.192 15.718C43.004 15.2793 43.914 15.06 44.922 15.06C45.7433 15.06 46.49 15.1953 47.162 15.466C47.834 15.7367 48.3987 16.1333 48.856 16.656L47.708 17.776C46.9613 17.0293 46.0607 16.656 45.006 16.656C44.3153 16.656 43.6993 16.8007 43.158 17.09C42.626 17.3793 42.206 17.7853 41.898 18.308C41.5993 18.8307 41.45 19.428 41.45 20.1C41.45 20.7533 41.5993 21.3413 41.898 21.864C42.206 22.3867 42.626 22.7973 43.158 23.096C43.6993 23.3947 44.3107 23.544 44.992 23.544C45.7573 23.544 46.4293 23.376 47.008 23.04V19.988ZM50.9625 17.524H52.7125V25H50.9625V17.524ZM51.8445 16.292C51.5271 16.292 51.2611 16.194 51.0465 15.998C50.8318 15.7927 50.7245 15.5407 50.7245 15.242C50.7245 14.9433 50.8318 14.696 51.0465 14.5C51.2611 14.2947 51.5271 14.192 51.8445 14.192C52.1618 14.192 52.4278 14.29 52.6425 14.486C52.8571 14.6727 52.9645 14.9107 52.9645 15.2C52.9645 15.508 52.8571 15.7693 52.6425 15.984C52.4371 16.1893 52.1711 16.292 51.8445 16.292ZM59.5033 24.594C59.298 24.762 59.046 24.888 58.7473 24.972C58.458 25.056 58.15 25.098 57.8233 25.098C57.002 25.098 56.3673 24.8833 55.9193 24.454C55.4713 24.0247 55.2473 23.3993 55.2473 22.578V18.98H54.0153V17.58H55.2473V15.872H56.9973V17.58H58.9993V18.98H56.9973V22.536C56.9973 22.9 57.086 23.18 57.2633 23.376C57.4407 23.5627 57.6973 23.656 58.0333 23.656C58.4253 23.656 58.752 23.5533 59.0133 23.348L59.5033 24.594ZM69.8189 15.2V25H67.9989V20.8H62.9309V25H61.1109V15.2H62.9309V19.246H67.9989V15.2H69.8189ZM79.5149 17.524V25H77.8489V24.048C77.5689 24.384 77.2189 24.6453 76.7989 24.832C76.3789 25.0093 75.9262 25.098 75.4409 25.098C74.4422 25.098 73.6536 24.8227 73.0749 24.272C72.5056 23.712 72.2209 22.886 72.2209 21.794V17.524H73.9709V21.556C73.9709 22.228 74.1202 22.732 74.4189 23.068C74.7269 23.3947 75.1609 23.558 75.7209 23.558C76.3462 23.558 76.8409 23.3667 77.2049 22.984C77.5782 22.592 77.7649 22.032 77.7649 21.304V17.524H79.5149ZM85.9502 17.44C86.6782 17.44 87.3269 17.5987 87.8962 17.916C88.4749 18.2333 88.9275 18.6813 89.2542 19.26C89.5809 19.8387 89.7442 20.506 89.7442 21.262C89.7442 22.018 89.5809 22.69 89.2542 23.278C88.9275 23.8567 88.4749 24.3047 87.8962 24.622C87.3269 24.9393 86.6782 25.098 85.9502 25.098C85.4369 25.098 84.9655 25.0093 84.5362 24.832C84.1162 24.6547 83.7615 24.3887 83.4722 24.034V25H81.8062V14.612H83.5562V18.434C83.8549 18.1073 84.2049 17.86 84.6062 17.692C85.0169 17.524 85.4649 17.44 85.9502 17.44ZM85.7542 23.6C86.3982 23.6 86.9255 23.3853 87.3362 22.956C87.7562 22.5267 87.9662 21.962 87.9662 21.262C87.9662 20.562 87.7562 19.9973 87.3362 19.568C86.9255 19.1387 86.3982 18.924 85.7542 18.924C85.3342 18.924 84.9562 19.022 84.6202 19.218C84.2842 19.4047 84.0182 19.6753 83.8222 20.03C83.6262 20.3847 83.5282 20.7953 83.5282 21.262C83.5282 21.7287 83.6262 22.1393 83.8222 22.494C84.0182 22.8487 84.2842 23.124 84.6202 23.32C84.9562 23.5067 85.3342 23.6 85.7542 23.6Z" fill="white"/>
<path d="M20 1H87V-1H20V1ZM87 39H20V41H87V39ZM20 39C9.50659 39 1 30.4934 1 20H-1C-1 31.598 8.40202 41 20 41V39ZM106 20C106 30.4934 97.4934 39 87 39V41C98.598 41 108 31.598 108 20H106ZM87 1C97.4934 1 106 9.50659 106 20H108C108 8.40202 98.598 -1 87 -1V1ZM20 -1C8.40202 -1 -1 8.40202 -1 20H1C1 9.50659 9.50659 1 20 1V-1Z" fill="#606060"/>
</svg>
