<svg width="18" height="18" viewBox="0 0 18 18" fill="none" xmlns="http://www.w3.org/2000/svg">
<path fill-rule="evenodd" clip-rule="evenodd" d="M9.35962 0.500362C14.0544 0.500362 17.8596 4.40175 17.8596 9.21528C17.8596 13.0649 15.4263 16.3303 12.0516 17.4843C11.6203 17.5696 11.4673 17.2978 11.4673 17.0654C11.4673 16.7784 11.4775 15.84 11.4775 14.6743C11.4775 13.8613 11.2058 13.3309 10.9005 13.0606C12.7933 12.8449 14.7822 12.1076 14.7822 8.76067C14.7822 7.80845 14.4529 7.03182 13.9072 6.42202C13.9954 6.20127 14.2868 5.31462 13.8234 4.1147C13.8234 4.1147 13.1117 3.88157 11.4892 5.00791C10.8094 4.81484 10.0823 4.71794 9.35962 4.71503C8.6369 4.71794 7.9098 4.81484 7.23225 5.00791C5.60758 3.88084 4.8936 4.1147 4.8936 4.1147C4.43243 5.31462 4.72385 6.20127 4.81128 6.42129C4.26851 7.03182 3.93629 7.80845 3.93629 8.76067C3.93629 12.0996 5.92086 12.8478 7.80854 13.0679C7.5652 13.285 7.34518 13.6696 7.26868 14.2328C6.78419 14.4557 5.55367 14.8404 4.79525 13.5086C4.79525 13.5086 4.34573 12.6708 3.4926 12.6103C3.4926 12.6103 2.66351 12.5994 3.43432 13.14C3.43432 13.14 3.99093 13.4074 4.37779 14.415C4.37779 14.415 4.87685 15.9704 7.24099 15.4429C7.24537 16.1715 7.25338 16.8585 7.25338 17.0654C7.25338 17.2964 7.09674 17.5652 6.67272 17.4851C3.29516 16.3332 0.859619 13.0657 0.859619 9.21601C0.859619 4.40102 4.6663 0.499634 9.35962 0.499634" fill="white"/>
</svg>
