<svg width="93" height="20" viewBox="0 0 93 20" fill="none" xmlns="http://www.w3.org/2000/svg">
<path fill-rule="evenodd" clip-rule="evenodd" d="M4.1 3.8C4.1 4.79411 3.29411 5.6 2.3 5.6C1.30589 5.6 0.5 4.79411 0.5 3.8C0.5 2.80589 1.30589 2 2.3 2C3.29411 2 4.1 2.80589 4.1 3.8ZM7.6 2.8C6.99249 2.8 6.5 3.29249 6.5 3.9C6.5 4.50751 6.99249 5 7.6 5H13.4C14.0075 5 14.5 4.50751 14.5 3.9C14.5 3.29249 14.0075 2.8 13.4 2.8H7.6ZM7.6 12.8C6.99249 12.8 6.5 13.2925 6.5 13.9C6.5 14.5075 6.99249 15 7.6 15H13.4C14.0075 15 14.5 14.5075 14.5 13.9C14.5 13.2925 14.0075 12.8 13.4 12.8H7.6ZM0.5 8.9C0.5 8.29249 0.992487 7.8 1.6 7.8H7.4C8.00751 7.8 8.5 8.29249 8.5 8.9C8.5 9.50751 8.00751 10 7.4 10H1.6C0.992487 10 0.5 9.50751 0.5 8.9ZM2.3 15.6C3.29411 15.6 4.1 14.7941 4.1 13.8C4.1 12.8059 3.29411 12 2.3 12C1.30589 12 0.5 12.8059 0.5 13.8C0.5 14.7941 1.30589 15.6 2.3 15.6ZM14.1 8.8C14.1 9.79411 13.2941 10.6 12.3 10.6C11.3059 10.6 10.5 9.79411 10.5 8.8C10.5 7.80589 11.3059 7 12.3 7C13.2941 7 14.1 7.80589 14.1 8.8Z" fill="white"/>
<path d="M24.332 6.92H21.548V5.6H28.676V6.92H25.892V14H24.332V6.92ZM35.0705 10.832C35.0705 10.936 35.0625 11.084 35.0465 11.276H30.0185C30.1065 11.748 30.3345 12.124 30.7025 12.404C31.0785 12.676 31.5425 12.812 32.0945 12.812C32.7985 12.812 33.3785 12.58 33.8345 12.116L34.6385 13.04C34.3505 13.384 33.9865 13.644 33.5465 13.82C33.1065 13.996 32.6105 14.084 32.0585 14.084C31.3545 14.084 30.7345 13.944 30.1985 13.664C29.6625 13.384 29.2465 12.996 28.9505 12.5C28.6625 11.996 28.5185 11.428 28.5185 10.796C28.5185 10.172 28.6585 9.612 28.9385 9.116C29.2265 8.612 29.6225 8.22 30.1265 7.94C30.6305 7.66 31.1985 7.52 31.8305 7.52C32.4545 7.52 33.0105 7.66 33.4985 7.94C33.9945 8.212 34.3785 8.6 34.6505 9.104C34.9305 9.6 35.0705 10.176 35.0705 10.832ZM31.8305 8.72C31.3505 8.72 30.9425 8.864 30.6065 9.152C30.2785 9.432 30.0785 9.808 30.0065 10.28H33.6425C33.5785 9.816 33.3825 9.44 33.0545 9.152C32.7265 8.864 32.3185 8.72 31.8305 8.72ZM38.4913 14.084C37.9713 14.084 37.4633 14.016 36.9673 13.88C36.4713 13.744 36.0753 13.572 35.7793 13.364L36.3553 12.224C36.6433 12.416 36.9873 12.572 37.3873 12.692C37.7953 12.804 38.1953 12.86 38.5873 12.86C39.4833 12.86 39.9313 12.624 39.9313 12.152C39.9313 11.928 39.8153 11.772 39.5833 11.684C39.3593 11.596 38.9953 11.512 38.4913 11.432C37.9633 11.352 37.5313 11.26 37.1953 11.156C36.8673 11.052 36.5793 10.872 36.3313 10.616C36.0913 10.352 35.9713 9.988 35.9713 9.524C35.9713 8.916 36.2233 8.432 36.7273 8.072C37.2393 7.704 37.9273 7.52 38.7913 7.52C39.2313 7.52 39.6713 7.572 40.1113 7.676C40.5513 7.772 40.9113 7.904 41.1913 8.072L40.6153 9.212C40.0713 8.892 39.4593 8.732 38.7793 8.732C38.3393 8.732 38.0033 8.8 37.7713 8.936C37.5473 9.064 37.4353 9.236 37.4353 9.452C37.4353 9.692 37.5553 9.864 37.7953 9.968C38.0433 10.064 38.4233 10.156 38.9353 10.244C39.4473 10.324 39.8673 10.416 40.1953 10.52C40.5233 10.624 40.8033 10.8 41.0353 11.048C41.2753 11.296 41.3953 11.648 41.3953 12.104C41.3953 12.704 41.1353 13.184 40.6153 13.544C40.0953 13.904 39.3873 14.084 38.4913 14.084ZM46.5391 13.652C46.3631 13.796 46.1471 13.904 45.8911 13.976C45.6431 14.048 45.3791 14.084 45.0991 14.084C44.3951 14.084 43.8511 13.9 43.4671 13.532C43.0831 13.164 42.8911 12.628 42.8911 11.924V8.84H41.8351V7.64H42.8911V6.176H44.3911V7.64H46.1071V8.84H44.3911V11.888C44.3911 12.2 44.4671 12.44 44.6191 12.608C44.7711 12.768 44.9911 12.848 45.2791 12.848C45.6151 12.848 45.8951 12.76 46.1191 12.584L46.5391 13.652ZM47.7731 7.592H49.2731V14H47.7731V7.592ZM48.5291 6.536C48.2571 6.536 48.0291 6.452 47.8451 6.284C47.6611 6.108 47.5691 5.892 47.5691 5.636C47.5691 5.38 47.6611 5.168 47.8451 5C48.0291 4.824 48.2571 4.736 48.5291 4.736C48.8011 4.736 49.0291 4.82 49.2131 4.988C49.3971 5.148 49.4891 5.352 49.4891 5.6C49.4891 5.864 49.3971 6.088 49.2131 6.272C49.0371 6.448 48.8091 6.536 48.5291 6.536ZM54.8778 7.52C55.6858 7.52 56.3338 7.756 56.8218 8.228C57.3098 8.7 57.5538 9.4 57.5538 10.328V14H56.0538V10.52C56.0538 9.96 55.9218 9.54 55.6578 9.26C55.3938 8.972 55.0178 8.828 54.5298 8.828C53.9778 8.828 53.5418 8.996 53.2218 9.332C52.9018 9.66 52.7418 10.136 52.7418 10.76V14H51.2418V7.592H52.6698V8.42C52.9178 8.124 53.2298 7.9 53.6058 7.748C53.9818 7.596 54.4058 7.52 54.8778 7.52ZM65.8753 7.592V13.028C65.8753 15.284 64.7233 16.412 62.4193 16.412C61.8033 16.412 61.2193 16.332 60.6673 16.172C60.1153 16.02 59.6593 15.796 59.2993 15.5L59.9713 14.372C60.2513 14.604 60.6033 14.788 61.0273 14.924C61.4593 15.068 61.8953 15.14 62.3353 15.14C63.0393 15.14 63.5553 14.98 63.8833 14.66C64.2113 14.34 64.3753 13.852 64.3753 13.196V12.86C64.1193 13.14 63.8073 13.352 63.4393 13.496C63.0713 13.64 62.6673 13.712 62.2273 13.712C61.6193 13.712 61.0673 13.584 60.5713 13.328C60.0833 13.064 59.6953 12.696 59.4073 12.224C59.1273 11.752 58.9873 11.212 58.9873 10.604C58.9873 9.996 59.1273 9.46 59.4073 8.996C59.6953 8.524 60.0833 8.16 60.5713 7.904C61.0673 7.648 61.6193 7.52 62.2273 7.52C62.6913 7.52 63.1113 7.596 63.4873 7.748C63.8713 7.9 64.1913 8.132 64.4473 8.444V7.592H65.8753ZM62.4553 12.44C63.0233 12.44 63.4873 12.272 63.8473 11.936C64.2153 11.592 64.3993 11.148 64.3993 10.604C64.3993 10.068 64.2153 9.632 63.8473 9.296C63.4873 8.96 63.0233 8.792 62.4553 8.792C61.8793 8.792 61.4073 8.96 61.0393 9.296C60.6793 9.632 60.4993 10.068 60.4993 10.604C60.4993 11.148 60.6793 11.592 61.0393 11.936C61.4073 12.272 61.8793 12.44 62.4553 12.44ZM76.7557 12.056H72.5557L71.7277 14H70.1197L73.8997 5.6H75.4357L79.2277 14H77.5957L76.7557 12.056ZM76.2397 10.832L74.6557 7.16L73.0837 10.832H76.2397ZM83.752 5.6C84.48 5.6 85.112 5.72 85.648 5.96C86.192 6.2 86.608 6.544 86.896 6.992C87.184 7.44 87.328 7.972 87.328 8.588C87.328 9.196 87.184 9.728 86.896 10.184C86.608 10.632 86.192 10.976 85.648 11.216C85.112 11.456 84.48 11.576 83.752 11.576H81.856V14H80.296V5.6H83.752ZM83.68 10.256C84.36 10.256 84.876 10.112 85.228 9.824C85.58 9.536 85.756 9.124 85.756 8.588C85.756 8.052 85.58 7.64 85.228 7.352C84.876 7.064 84.36 6.92 83.68 6.92H81.856V10.256H83.68ZM88.8858 5.6H90.4458V14H88.8858V5.6Z" fill="white"/>
</svg>
