<svg width="67" height="20" viewBox="0 0 67 20" fill="none" xmlns="http://www.w3.org/2000/svg">
<path fill-rule="evenodd" clip-rule="evenodd" d="M8.5 0.500729C13.1948 0.500729 17 4.40212 17 9.21565C17 13.0653 14.5666 16.3307 11.192 17.4847C10.7607 17.5699 10.6077 17.2982 10.6077 17.0658C10.6077 16.7787 10.6179 15.8404 10.6179 14.6747C10.6179 13.8616 10.3461 13.3312 10.0409 13.0609C11.9337 12.8453 13.9226 12.108 13.9226 8.76103C13.9226 7.80882 13.5933 7.03219 13.0476 6.42239C13.1358 6.20164 13.4272 5.31499 12.9638 4.11507C12.9638 4.11507 12.252 3.88193 10.6296 5.00827C9.94982 4.81521 9.22272 4.71831 8.5 4.71539C7.77728 4.71831 7.05018 4.81521 6.37263 5.00827C4.74796 3.8812 4.03398 4.11507 4.03398 4.11507C3.57281 5.31499 3.86423 6.20164 3.95166 6.42166C3.40889 7.03219 3.07667 7.80882 3.07667 8.76103C3.07667 12.1 5.06124 12.8482 6.94892 13.0682C6.70558 13.2853 6.48556 13.67 6.40906 14.2332C5.92457 14.4561 4.69405 14.8408 3.93563 13.509C3.93563 13.509 3.48611 12.6712 2.63298 12.6107C2.63298 12.6107 1.80389 12.5998 2.5747 13.1404C2.5747 13.1404 3.13131 13.4077 3.51817 14.4153C3.51817 14.4153 4.01723 15.9708 6.38137 15.4433C6.38575 16.1719 6.39376 16.8589 6.39376 17.0658C6.39376 17.2967 6.23712 17.5656 5.81311 17.4854C2.43554 16.3336 0 13.066 0 9.21638C0 4.40139 3.80668 0.5 8.5 0.5" fill="white"/>
<path d="M29.364 9.704H30.84V13.052C30.408 13.396 29.904 13.66 29.328 13.844C28.752 14.028 28.16 14.12 27.552 14.12C26.696 14.12 25.924 13.936 25.236 13.568C24.548 13.192 24.008 12.676 23.616 12.02C23.224 11.364 23.028 10.624 23.028 9.8C23.028 8.976 23.224 8.236 23.616 7.58C24.008 6.924 24.548 6.412 25.236 6.044C25.932 5.668 26.712 5.48 27.576 5.48C28.28 5.48 28.92 5.596 29.496 5.828C30.072 6.06 30.556 6.4 30.948 6.848L29.964 7.808C29.324 7.168 28.552 6.848 27.648 6.848C27.056 6.848 26.528 6.972 26.064 7.22C25.608 7.468 25.248 7.816 24.984 8.264C24.728 8.712 24.6 9.224 24.6 9.8C24.6 10.36 24.728 10.864 24.984 11.312C25.248 11.76 25.608 12.112 26.064 12.368C26.528 12.624 27.052 12.752 27.636 12.752C28.292 12.752 28.868 12.608 29.364 12.32V9.704ZM32.7535 7.592H34.2535V14H32.7535V7.592ZM33.5095 6.536C33.2375 6.536 33.0095 6.452 32.8255 6.284C32.6415 6.108 32.5495 5.892 32.5495 5.636C32.5495 5.38 32.6415 5.168 32.8255 5C33.0095 4.824 33.2375 4.736 33.5095 4.736C33.7815 4.736 34.0095 4.82 34.1935 4.988C34.3775 5.148 34.4695 5.352 34.4695 5.6C34.4695 5.864 34.3775 6.088 34.1935 6.272C34.0175 6.448 33.7895 6.536 33.5095 6.536ZM40.0743 13.652C39.8983 13.796 39.6823 13.904 39.4263 13.976C39.1783 14.048 38.9143 14.084 38.6343 14.084C37.9303 14.084 37.3863 13.9 37.0023 13.532C36.6183 13.164 36.4263 12.628 36.4263 11.924V8.84H35.3703V7.64H36.4263V6.176H37.9263V7.64H39.6423V8.84H37.9263V11.888C37.9263 12.2 38.0023 12.44 38.1543 12.608C38.3063 12.768 38.5263 12.848 38.8143 12.848C39.1503 12.848 39.4303 12.76 39.6543 12.584L40.0743 13.652ZM48.9162 5.6V14H47.3562V10.4H43.0122V14H41.4522V5.6H43.0122V9.068H47.3562V5.6H48.9162ZM57.2271 7.592V14H55.7991V13.184C55.5591 13.472 55.2591 13.696 54.8991 13.856C54.5391 14.008 54.1511 14.084 53.7351 14.084C52.8791 14.084 52.2031 13.848 51.7071 13.376C51.2191 12.896 50.9751 12.188 50.9751 11.252V7.592H52.4751V11.048C52.4751 11.624 52.6031 12.056 52.8591 12.344C53.1231 12.624 53.4951 12.764 53.9751 12.764C54.5111 12.764 54.9351 12.6 55.2471 12.272C55.5671 11.936 55.7271 11.456 55.7271 10.832V7.592H57.2271ZM62.743 7.52C63.367 7.52 63.923 7.656 64.411 7.928C64.907 8.2 65.295 8.584 65.575 9.08C65.855 9.576 65.995 10.148 65.995 10.796C65.995 11.444 65.855 12.02 65.575 12.524C65.295 13.02 64.907 13.404 64.411 13.676C63.923 13.948 63.367 14.084 62.743 14.084C62.303 14.084 61.899 14.008 61.531 13.856C61.171 13.704 60.867 13.476 60.619 13.172V14H59.191V5.096H60.691V8.372C60.947 8.092 61.247 7.88 61.591 7.736C61.943 7.592 62.327 7.52 62.743 7.52ZM62.575 12.8C63.127 12.8 63.579 12.616 63.931 12.248C64.291 11.88 64.471 11.396 64.471 10.796C64.471 10.196 64.291 9.712 63.931 9.344C63.579 8.976 63.127 8.792 62.575 8.792C62.215 8.792 61.891 8.876 61.603 9.044C61.315 9.204 61.087 9.436 60.919 9.74C60.751 10.044 60.667 10.396 60.667 10.796C60.667 11.196 60.751 11.548 60.919 11.852C61.087 12.156 61.315 12.392 61.603 12.56C61.891 12.72 62.215 12.8 62.575 12.8Z" fill="white"/>
</svg>
