<svg width="57" height="24" viewBox="0 0 57 24" fill="none" xmlns="http://www.w3.org/2000/svg">
<g opacity="0.5" filter="url(#filter0_i)">
<rect width="57" height="24" rx="8" fill="#9190AE"/>
</g>
<path d="M15.7267 6.94L18.1134 9.33333H8.66675V10.6667H18.1134L15.7201 13.06L16.6667 14L20.6667 10L16.6667 6L15.7267 6.94ZM21.3334 6V14H22.6667V6H21.3334Z" fill="white"/>
<path d="M32.668 13.628C32.5 13.772 32.292 13.884 32.044 13.964C31.796 14.036 31.54 14.072 31.276 14.072C30.636 14.072 30.14 13.9 29.788 13.556C29.436 13.212 29.26 12.72 29.26 12.08V8.588H28.18V7.64H29.26V6.248H30.412V7.64H32.236V8.588H30.412V12.032C30.412 12.376 30.496 12.64 30.664 12.824C30.84 13.008 31.088 13.1 31.408 13.1C31.76 13.1 32.06 13 32.308 12.8L32.668 13.628ZM36.3768 7.58C37.2568 7.58 37.9288 7.796 38.3928 8.228C38.8648 8.66 39.1008 9.304 39.1008 10.16V14H38.0088V13.16C37.8168 13.456 37.5408 13.684 37.1808 13.844C36.8288 13.996 36.4088 14.072 35.9208 14.072C35.2088 14.072 34.6368 13.9 34.2048 13.556C33.7808 13.212 33.5688 12.76 33.5688 12.2C33.5688 11.64 33.7728 11.192 34.1808 10.856C34.5888 10.512 35.2368 10.34 36.1248 10.34H37.9488V10.112C37.9488 9.616 37.8048 9.236 37.5168 8.972C37.2288 8.708 36.8048 8.576 36.2448 8.576C35.8688 8.576 35.5008 8.64 35.1408 8.768C34.7808 8.888 34.4768 9.052 34.2288 9.26L33.7488 8.396C34.0768 8.132 34.4688 7.932 34.9248 7.796C35.3808 7.652 35.8648 7.58 36.3768 7.58ZM36.1128 13.184C36.5528 13.184 36.9328 13.088 37.2528 12.896C37.5728 12.696 37.8048 12.416 37.9488 12.056V11.168H36.1728C35.1968 11.168 34.7088 11.496 34.7088 12.152C34.7088 12.472 34.8328 12.724 35.0808 12.908C35.3288 13.092 35.6728 13.184 36.1128 13.184ZM44.6046 7.58C45.2206 7.58 45.7726 7.716 46.2606 7.988C46.7486 8.26 47.1286 8.64 47.4006 9.128C47.6806 9.616 47.8206 10.18 47.8206 10.82C47.8206 11.46 47.6806 12.028 47.4006 12.524C47.1286 13.012 46.7486 13.392 46.2606 13.664C45.7726 13.936 45.2206 14.072 44.6046 14.072C44.1326 14.072 43.7006 13.98 43.3086 13.796C42.9166 13.612 42.5926 13.344 42.3366 12.992V14H41.2326V5.096H42.3846V8.6C42.6406 8.264 42.9606 8.012 43.3446 7.844C43.7286 7.668 44.1486 7.58 44.6046 7.58ZM44.5086 13.064C44.9166 13.064 45.2806 12.972 45.6006 12.788C45.9286 12.596 46.1846 12.332 46.3686 11.996C46.5606 11.652 46.6566 11.26 46.6566 10.82C46.6566 10.38 46.5606 9.992 46.3686 9.656C46.1846 9.312 45.9286 9.048 45.6006 8.864C45.2806 8.68 44.9166 8.588 44.5086 8.588C44.1086 8.588 43.7446 8.68 43.4166 8.864C43.0886 9.048 42.8326 9.312 42.6486 9.656C42.4646 9.992 42.3726 10.38 42.3726 10.82C42.3726 11.26 42.4646 11.652 42.6486 11.996C42.8326 12.332 43.0886 12.596 43.4166 12.788C43.7446 12.972 44.1086 13.064 44.5086 13.064Z" fill="white"/>
<defs>
<filter id="filter0_i" x="0" y="0" width="57" height="24" filterUnits="userSpaceOnUse" color-interpolation-filters="sRGB">
<feFlood flood-opacity="0" result="BackgroundImageFix"/>
<feBlend mode="normal" in="SourceGraphic" in2="BackgroundImageFix" result="shape"/>
<feColorMatrix in="SourceAlpha" type="matrix" values="0 0 0 0 0 0 0 0 0 0 0 0 0 0 0 0 0 0 127 0" result="hardAlpha"/>
<feOffset dy="-3"/>
<feComposite in2="hardAlpha" operator="arithmetic" k2="-1" k3="1"/>
<feColorMatrix type="matrix" values="0 0 0 0 0 0 0 0 0 0 0 0 0 0 0 0 0 0 0.25 0"/>
<feBlend mode="normal" in2="shape" result="effect1_innerShadow"/>
</filter>
</defs>
</svg>
